<svg xmlns="http://www.w3.org/2000/svg" viewBox="0 0 35.88 33.83"><defs><style>.cls-1{fill:none;stroke:#fff;stroke-linecap:round;stroke-linejoin:round;}</style></defs><g id="Capa_2" data-name="Capa 2"><g id="Capa_1-2" data-name="Capa 1"><path class="cls-1" d="M31.81.65s-16.14-2.58-13.6,13.6C34.39,16.8,31.81.65,31.81.65ZM27.6,4.87l-9.39,9.38M4.07.65s16.15-2.58,13.6,13.6C1.49,16.8,4.07.65,4.07.65ZM8.83,5.42l8.84,8.83M19,21.12A52.73,52.73,0,0,1,18.31,14h-.74a47.19,47.19,0,0,1-.8,8A16,16,0,0,0,19,21.12Zm-8.34,3.17L5.47,21.18A3.41,3.41,0,0,0,.79,22.3h0A2,2,0,0,0,1.42,25l4.33,2.67,5.74,3.54a15.86,15.86,0,0,0,14.74.64,16.14,16.14,0,0,1,9.15-1.58V20L31.5,17.88c-4.34-2.43-9.88,1.69-9.88,1.69a16.5,16.5,0,0,1-6.35,2.76,13.46,13.46,0,0,0-2.88.53,3.52,3.52,0,0,0-2.15,2.39,2.26,2.26,0,0,0,.85,2.26c.94.63,2.34.41,3.38.28a31.21,31.21,0,0,0,7.47-2l.1,0m-9.42-3L7,19.5a3,3,0,0,0-4.14,1l-.15.33m13.11,1.41L9.46,18.45a3,3,0,0,0-3.87.61"/></g></g></svg>