<svg width="54" height="43" viewBox="0 0 54 43" fill="none" xmlns="http://www.w3.org/2000/svg">
<path d="M27 29.5625H21.6C20.1066 29.5625 18.9 30.7635 18.9 32.25V39.6406C18.9 41.4967 17.3897 43 15.525 43H10.8084C10.6819 43 10.5553 42.9916 10.4288 42.9832C10.3275 42.9916 10.2263 43 10.125 43H8.775C6.91116 43 5.4 41.4967 5.4 39.6406V30.2344C5.4 30.1588 5.40253 30.0748 5.40759 29.9992V24.1539H2.70422C1.18294 24.1539 0 22.9697 0 21.458C0 20.7021 0.253463 20.0303 0.844594 19.4424L22.4775 0.673219C23.0681 0.0841523 23.7431 0 24.3337 0C24.9244 0 25.5994 0.168305 26.1141 0.589066L44.0522 16.2846C43.335 16.1838 42.6009 16.125 41.85 16.125C34.1044 16.125 27.7425 22.0291 27.0591 29.5625H27ZM54 30.9062C54 37.583 48.5578 43 41.85 43C35.1422 43 29.7 37.583 29.7 30.9062C29.7 24.2295 35.1422 18.8125 41.85 18.8125C48.5578 18.8125 54 24.2295 54 30.9062ZM45.6216 27.2697L40.5 32.3676L38.0784 29.9572C37.5553 29.4281 36.6947 29.4281 36.1716 29.9572C35.64 30.4779 35.64 31.3346 36.1716 31.8553L39.5466 35.2146C40.0697 35.7437 40.9303 35.7437 41.4534 35.2146L47.5284 29.1678C48.06 28.6471 48.06 27.7904 47.5284 27.2697C47.0053 26.7406 46.1447 26.7406 45.6216 27.2697Z" fill="#225E00"/>
</svg>
